<?xml version="1.0" encoding="utf-8"?>
<!-- Generator: Adobe Illustrator 24.1.2, SVG Export Plug-In . SVG Version: 6.00 Build 0)  -->
<svg version="1.1" id="Layer_1" xmlns="http://www.w3.org/2000/svg" xmlns:xlink="http://www.w3.org/1999/xlink" x="0px" y="0px"
	 viewBox="0 0 1024 1024" style="enable-background:new 0 0 1024 1024;" xml:space="preserve">
<style type="text/css">
	.st0{fill-rule:evenodd;clip-rule:evenodd;}
	.st1{fill:#FFFFFF;}
</style>
<desc>Created with Sketch.</desc>
<g id="logo-Symbol-White">
	<circle id="Oval" class="st0" cx="511.5" cy="511.5" r="332.5"/>
	<g id="Logo-Symbol-Green" transform="translate(50.000000, 50.000000)">
		<path id="logo-green" class="st1" d="M461.8,0c255,0,461.8,206.8,461.8,461.8S716.8,923.6,461.8,923.6S0,716.8,0,461.8
			S206.8,0,461.8,0z M536.9,465.5c15.5,19.9,23.9,45.6,22.1,72.9c-3.6,53.2-45.3,94.6-95.9,98.2l0,0v122.8l2.8,0
			c92.2-0.2,169.3-72.9,175.7-168.1C645.8,527.8,597.7,474.1,536.9,465.5z M478.2,164.3c-116.4-4.2-214.6,85.3-224.3,201.8
			c-10.3,124.1,83,231.4,203.3,238.8c0.9,0.1,6.3,0.2,8.5-0.1c37-6,66.4-31.6,68.7-76.9c0,0,0.1-4.1,0-6.1
			c-1.1-17-6.2-33.2-14.5-47.3c-0.7-1.1-1.5-2.1-2.3-3.1c-14.9,8.4-32.2,12.9-50.5,12.2c-50.5-1.8-90.7-42.3-93.9-92.5
			c-3.8-61.5,48.6-111.8,108.9-104.5c30.8,3.7,57,21.9,72.1,47.6l0,0l88.8-83.6l-2-2.6C602.9,199,544.5,166.7,478.2,164.3z"/>
	</g>
</g>
</svg>
