<?xml version="1.0" encoding="UTF-8"?>
<svg width="341px" height="220px" viewBox="0 0 341 220" version="1.1" xmlns="http://www.w3.org/2000/svg" xmlns:xlink="http://www.w3.org/1999/xlink">
    <!-- Generator: Sketch 61.2 (89653) - https://sketch.com -->
    <title>GlucodeLogo-White Copy 2@3x</title>
    <desc>Created with Sketch.</desc>
    <g id="GlucodeLogo-White-Copy-2" stroke="none" stroke-width="1" fill="none" fill-rule="evenodd">
        <g id="Group-3-Copy-3" transform="translate(10.000000, 10.000000)" fill="#FFFFFF">
            <path d="M161,0 C190.823371,0 215,24.1766221 215,54 C215,83.8233715 190.823371,108 161,108 C131.176622,108 107,83.8233715 107,54 C107,24.1766221 131.176622,0 161,0 Z M170.382802,55.9772438 C172.366098,58.5535762 173.449817,61.8705403 173.214685,65.4104432 C172.75713,72.2985269 167.401347,77.6433991 160.916398,78.1174744 L160.916398,78.1174744 L160.916398,93.9977321 L161.275109,93.9999632 C173.093327,93.9785016 182.981799,84.5652148 183.799481,72.2548557 C184.345002,64.0430487 178.174625,57.088272 170.382802,55.9772438 Z M162.857323,17.0179542 C147.932432,16.4808909 135.33571,28.0567941 134.099235,43.1275392 C132.78197,59.1826092 144.743843,73.0571629 160.167548,74.0244009 C160.282306,74.0315523 160.979494,74.0496218 161.253484,74.0051304 C166.001065,73.2346372 169.766643,69.9203267 170.06495,64.0627447 C170.065003,64.0614891 170.079561,63.5345797 170.062284,63.2729811 C169.917236,61.0747774 169.26143,58.9826434 168.200025,57.149324 C168.106491,57.0117554 168.009917,56.8765889 167.910357,56.7437151 C165.997225,57.8251568 163.782213,58.4068207 161.439059,58.3225327 C154.959549,58.0893758 149.805622,52.8466489 149.405409,46.358053 C148.914914,38.4045157 155.639512,31.8911902 163.369682,32.833371 C167.322062,33.3150794 170.682947,35.6729063 172.61629,38.9878173 L172.61629,38.9878173 L184,28.1705065 L183.730457,27.8169391 C178.8308,21.4924518 171.355333,17.3237316 162.857323,17.0179542 Z" id="Combined-Shape"></path>
            <path d="M30.9305761,199 C48.478582,199 60,188.841584 60,167.009901 L32.437223,167.009901 L32.437223,174.851485 L49.985229,174.851485 C49.985229,175.386139 49.8966027,175.920792 49.8079764,176.366337 C48.478582,185.009901 40.8567208,190.534653 30.9305761,190.534653 C18.6115214,190.534653 9.12850812,180.108911 9.12850812,167.544554 C9.12850812,154.891089 18.6115214,144.465347 30.9305761,144.465347 C36.6026588,144.465347 41.83161,146.782178 45.6425406,150.346535 L52.0236337,144.465347 C46.7060561,139.207921 39.2614476,136 30.9305761,136 C13.5598227,136 0,150.079208 0,167.544554 C0,184.920792 13.5598227,199 30.9305761,199 Z" id="Path" fill-rule="nonzero"></path>
            <polygon id="Path" fill-rule="nonzero" points="79 198 79 135 70 135 70 198"></polygon>
            <path d="M104.778562,199 C109.151456,199 115.84466,196.886792 118.254213,191.867925 L118.254213,198.119497 L127,198.119497 L127,157 L118.254213,157 L118.254213,179.012579 C118.254213,187.465409 111.650252,190.459119 106.206446,190.459119 C100.851882,190.459119 96.7467171,186.584906 96.7467171,179.893082 L96.7467171,157 L88.0009304,157 L88.0009304,180.509434 C87.9116876,192.220126 94.2479209,199 104.778562,199 Z" id="Path" fill-rule="nonzero"></path>
            <path d="M157.064516,199 C163.718894,199 169.410138,196.257202 173,191.921811 L167.308756,186.524691 C164.9447,189.179012 161.354839,190.860082 157.239631,190.860082 C149.62212,190.860082 143.580645,185.374486 143.580645,177.5 C143.580645,169.625514 149.62212,164.139918 157.239631,164.139918 C161.354839,164.139918 164.9447,165.820988 167.308756,168.475309 L173,163.078189 C169.410138,158.742798 163.718894,156 157.064516,156 C145.24424,156 135,164.40535 135,177.5 C135,190.59465 145.24424,199 157.064516,199 Z" id="Path" fill-rule="nonzero"></path>
            <path d="M200.456212,156 C212.10387,156 222,164.299795 222,177.367556 C222,190.435318 212.10387,199 200.456212,199 C188.808554,199 179,190.435318 179,177.367556 C179,164.299795 188.808554,156 200.456212,156 Z M200.456212,164.123203 C193.450102,164.123203 187.582485,169.420945 187.582485,177.367556 C187.582485,185.402464 193.450102,190.788501 200.456212,190.788501 C207.462322,190.788501 213.417515,185.402464 213.417515,177.367556 C213.417515,169.420945 207.462322,164.123203 200.456212,164.123203 Z" id="Combined-Shape" fill-rule="nonzero"></path>
            <path d="M273,135 L273,199.109589 L264.217923,199.109589 L264.217923,192.876712 C261.439919,197.59589 255.435845,200 249.790224,200 C238.409369,200 229,191.452055 229,178.273973 C229,165.006849 238.409369,156.636986 249.700611,156.636986 C255.615071,156.636986 261.439919,158.952055 264.217923,163.671233 L264.217923,163.671233 L264.217923,135 L273,135 Z M250.775967,164.917808 C243.606925,164.917808 237.782077,170.349315 237.782077,178.184932 C237.782077,185.931507 243.606925,191.719178 250.775967,191.719178 C257.855397,191.719178 264.12831,186.554795 264.12831,178.184932 C264.12831,169.815068 257.228106,164.917808 250.775967,164.917808 Z" id="Combined-Shape" fill-rule="nonzero"></path>
            <path d="M300.309474,156 C312.069474,156 321,164.299795 321,177.279261 C321,178.427105 320.911579,179.663244 320.823158,180.98768 L320.823158,180.98768 L287.930526,180.98768 C289.08,187.698152 294.031579,190.965092 300.751579,190.965092 C305.526316,190.965092 310.035789,188.934292 312.334737,185.137577 L312.334737,185.137577 L319.231579,188.581109 C315.606316,195.468172 308.178947,199 300.309474,199 C288.372632,199 279,190.435318 279,177.367556 C279,164.299795 288.549474,156 300.309474,156 Z M300.397895,164.034908 C294.031579,164.034908 289.256842,167.213552 288.018947,174.01232 L288.018947,174.01232 L312.334737,174.01232 C311.538947,167.566735 306.764211,164.034908 300.397895,164.034908 Z" id="Combined-Shape" fill-rule="nonzero"></path>
        </g>
    </g>
</svg>